HIERARCHY
ROOT Hips
{
	OFFSET 0.000000 0.000000 0.000000
	CHANNELS 6 Xposition Yposition Zposition Zrotation Yrotation Xrotation 
	JOINT LeftUpLeg_virtual
	{
		OFFSET 0.000000 0.000000 0.000000
		CHANNELS 3 Zrotation Yrotation Xrotation
		JOINT LeftUpLeg
		{
			OFFSET 10.205400 -3.823500 0.155100
			CHANNELS 3 Zrotation Yrotation Xrotation
			JOINT LeftLeg
			{
				OFFSET 0.708757 -12.982077 0.567790
				CHANNELS 3 Zrotation Yrotation Xrotation
				JOINT LeftFoot
				{
					OFFSET -0.708756 -10.717838 -2.184338
					CHANNELS 3 Zrotation Yrotation Xrotation
					JOINT LeftToeBase
					{
						OFFSET 0.108149 -7.191104 7.560241
						CHANNELS 3 Zrotation Yrotation Xrotation
						End Site
						{
							OFFSET 0.000000 0.000000 0.000000
						}
					}
				}
			}
		}
	}
	JOINT RightUpLeg_virtual
	{
		OFFSET 0.000000 0.000000 0.000000
		CHANNELS 3 Zrotation Yrotation Xrotation
		JOINT RightUpLeg
		{
			OFFSET -10.205400 -3.823500 0.005500
			CHANNELS 3 Zrotation Yrotation Xrotation
			JOINT RightLeg
			{
				OFFSET -0.708756 -12.982134 0.610632
				CHANNELS 3 Zrotation Yrotation Xrotation
				JOINT RightFoot
				{
					OFFSET 0.708754 -10.717769 -1.945823
					CHANNELS 3 Zrotation Yrotation Xrotation
					JOINT RightToeBase
					{
						OFFSET -0.108140 -7.191069 7.372968
						CHANNELS 3 Zrotation Yrotation Xrotation
						End Site
						{
							OFFSET 0.000000 0.000000 0.000000
						}
					}
				}
			}
		}
	}
	JOINT Spine_virtual
	{
		OFFSET 0.000000 0.000000 0.000000
		CHANNELS 3 Zrotation Yrotation Xrotation
		JOINT Spine
		{
			OFFSET 0.000000 6.876099 0.125700
			CHANNELS 3 Zrotation Yrotation Xrotation
			JOINT Spine1
			{
				OFFSET 0.000000 8.022060 0.146608
				CHANNELS 3 Zrotation Yrotation Xrotation
				JOINT Spine2
				{
					OFFSET 0.000000 9.168068 0.167552
					CHANNELS 3 Zrotation Yrotation Xrotation
					JOINT Neck_virtual
					{
						OFFSET 0.000000 0.000000 0.000000
						CHANNELS 3 Zrotation Yrotation Xrotation
						JOINT Neck
						{
							OFFSET 0.000000 10.314075 0.188496
							CHANNELS 3 Zrotation Yrotation Xrotation
							JOINT Head
							{
								OFFSET 0.000000 7.643700 -2.377400
								CHANNELS 3 Zrotation Yrotation Xrotation
								End Site
								{
									OFFSET 0.000000 0.000000 0.000000
								}
							}
						}
					}
					JOINT LeftShoulder_virtual
					{
						OFFSET 0.000000 0.000000 0.000000
						CHANNELS 3 Zrotation Yrotation Xrotation
						JOINT LeftShoulder
						{
							OFFSET 4.392200 8.824978 0.174984
							CHANNELS 3 Zrotation Yrotation Xrotation
							JOINT LeftArm
							{
								OFFSET 8.771219 -2.981674 -0.026999
								CHANNELS 3 Zrotation Yrotation Xrotation
								JOINT LeftForeArm
								{
									OFFSET 8.512804 0.000000 -0.000000
									CHANNELS 3 Zrotation Yrotation Xrotation
									JOINT LeftHand
									{
										OFFSET 18.484802 0.000000 -0.000000
										CHANNELS 3 Zrotation Yrotation Xrotation
										End Site
										{
											OFFSET 0.000000 0.000000 0.000000
										}
									}
								}
							}
						}
					}
					JOINT RightShoulder_virtual
					{
						OFFSET 0.000000 0.000000 0.000000
						CHANNELS 3 Zrotation Yrotation Xrotation
						JOINT RightShoulder
						{
							OFFSET -4.392200 8.824993 0.141379
							CHANNELS 3 Zrotation Yrotation Xrotation
							JOINT RightArm
							{
								OFFSET -8.771282 -2.981682 -0.094208
								CHANNELS 3 Zrotation Yrotation Xrotation
								JOINT RightForeArm
								{
									OFFSET -8.494598 0.000000 0.000000
									CHANNELS 3 Zrotation Yrotation Xrotation
									JOINT RightHand
									{
										OFFSET -18.483803 0.000000 0.000001
										CHANNELS 3 Zrotation Yrotation Xrotation
										End Site
										{
											OFFSET 0.000000 0.000000 0.000000
										}
									}
								}
							}
						}
					}
				}
			}
		}
	}
}
MOTION
Frames: 10
Frame Time: 0.033333
-1.342078 32.357517 5.202127 -179.887799 -19.800081 -179.426201 -0.822895 -3.123684 6.226187 -6.271827 12.668897 -3.763216 17.349594 4.856156 35.941808 -12.502774 -0.677689 -5.929655 0.000000 0.000000 0.000000 4.262403 -0.924141 2.223935 -16.182781 3.444618 -37.081896 -6.618245 2.352992 25.086745 9.959018 2.437093 27.250445 0.000000 0.000000 0.000000 0.556060 0.361543 -6.708725 -1.272112 3.626838 -10.031411 -0.351018 -2.806551 7.753551 -0.012341 0.042597 0.090023 -0.711336 -0.634962 9.483025 0.396581 -6.149694 22.910285 0.000000 0.000000 0.000000 1.209616 -0.427635 6.385355 -4.421725 -5.137221 -2.164343 -51.051463 -33.614960 1.775172 158.368045 -83.026270 -144.159694 0.000000 0.000000 0.000000 -3.062856 1.109114 5.041667 2.894365 9.583283 -2.386682 26.423085 -13.216020 -41.104512 -174.494080 64.345252 -176.296034 0.000000 0.000000 0.000000 
-1.302227 32.553608 5.751186 -179.800195 -20.636841 -179.602911 -1.085281 -3.399478 5.535935 -6.323190 11.608499 -3.477251 18.121144 5.915520 36.077879 -13.058359 -0.972966 -6.431432 0.000000 0.000000 0.000000 3.639824 -0.881850 1.917946 -13.497192 3.146834 -35.195265 -5.196404 3.484831 30.141382 8.216953 5.068325 28.950894 0.000000 0.000000 0.000000 0.140619 -0.031450 -7.601237 -1.984533 3.646745 -9.963322 -0.589167 -2.599281 8.001643 0.033996 -0.126046 0.124208 -0.978619 -0.242721 9.744782 -0.136411 -6.233881 24.039831 0.000000 0.000000 0.000000 0.880765 -0.088091 6.674666 -4.515395 -6.857497 -2.012222 -53.107931 -31.394350 2.615760 161.215168 -82.334611 -146.201333 0.000000 0.000000 0.000000 -3.261026 1.370539 5.218836 2.198249 8.834238 -2.254147 26.560246 -14.359424 -40.627509 -174.126971 64.854818 -175.676427 0.000000 0.000000 0.000000 
-1.208363 32.735378 6.143456 -179.730568 -20.970055 -179.457469 -1.244024 -3.550140 4.691218 -5.832172 10.659435 -3.595248 18.471412 7.469634 36.461534 -13.538403 -1.062852 -5.712714 0.000000 0.000000 0.000000 3.258014 -1.033882 1.849767 -11.813145 3.029493 -33.290977 -4.983274 4.208881 32.644770 7.738839 6.325841 28.399015 0.000000 0.000000 0.000000 -0.209748 -0.436161 -8.746370 -2.710305 3.790012 -9.990244 -0.817178 -2.256816 8.241132 0.030399 -0.186852 0.116468 -1.200939 0.130397 10.247182 -0.679510 -6.272335 25.262197 0.000000 0.000000 0.000000 0.612601 0.070993 7.096116 -4.542336 -8.733392 -1.621366 -55.083539 -29.483116 3.359719 162.294884 -81.459575 -146.527556 0.000000 0.000000 0.000000 -3.447937 1.581137 5.530656 1.480054 8.042171 -2.162455 26.810910 -15.341952 -39.847996 -173.896999 65.427222 -175.166881 0.000000 0.000000 0.000000 
-1.067094 32.844810 6.425440 -179.734925 -20.412254 -179.249176 -1.512493 -3.622783 4.153777 -5.421468 10.165663 -4.011193 18.656455 8.639702 37.345309 -13.784638 -0.967408 -5.292291 0.000000 0.000000 0.000000 3.190491 -1.538544 1.791625 -11.363719 2.613618 -31.880885 -5.359154 4.581322 33.400499 7.880941 6.026521 27.657150 0.000000 0.000000 0.000000 -0.503833 -0.761587 -9.925820 -3.398781 4.003994 -10.044703 -0.994489 -1.856655 8.531333 0.033565 -0.174776 0.116808 -1.389390 0.518381 10.679837 -1.247227 -6.248870 26.386122 0.000000 0.000000 0.000000 0.428206 0.563954 7.460334 -4.674663 -10.438022 -1.322862 -57.238905 -27.584791 4.480342 164.131017 -80.594101 -147.603803 0.000000 0.000000 0.000000 -3.622021 1.956802 5.913472 0.673540 7.490217 -2.173837 27.287929 -16.042016 -39.134197 -173.313427 66.197415 -174.275419 0.000000 0.000000 0.000000 
-0.880935 32.891602 6.608834 -179.706676 -19.941577 -179.359470 -1.750984 -3.833897 3.930018 -4.905070 9.732261 -4.552303 18.694834 8.808540 38.577182 -13.557090 -0.805960 -4.970818 0.000000 0.000000 0.000000 2.959474 -1.789559 1.418572 -11.174856 2.552303 -31.328326 -5.178781 4.807906 32.728573 8.803633 6.490750 27.081618 0.000000 0.000000 0.000000 -0.822973 -0.988607 -10.901054 -4.056245 4.142064 -9.996791 -1.172938 -1.717692 8.998480 0.040991 -0.379450 0.123460 -1.524878 0.881189 11.184810 -1.823390 -6.175022 27.483308 0.000000 0.000000 0.000000 0.264665 0.988897 7.905903 -4.870772 -12.086985 -1.054722 -59.048256 -25.765654 5.985806 165.906278 -79.991030 -148.609221 0.000000 0.000000 0.000000 -3.740711 2.374965 6.337795 -0.229062 7.106336 -2.188903 27.703217 -16.477756 -38.357991 -172.611981 67.065067 -173.242858 0.000000 0.000000 0.000000 
-0.638097 32.882118 6.723423 -179.660435 -19.372291 -179.493956 -1.888760 -4.029359 3.905617 -4.191410 9.400624 -5.202302 18.528696 8.534823 39.837734 -13.346700 -0.696664 -4.917322 0.000000 0.000000 0.000000 2.717120 -1.867248 1.109251 -11.086111 2.663819 -30.785049 -4.887591 4.978486 31.755971 10.125492 7.056717 26.893733 0.000000 0.000000 0.000000 -0.966879 -1.474181 -11.861515 -4.596793 4.264556 -10.060863 -1.314226 -1.242012 9.510869 0.050808 -0.319865 0.117988 -1.584922 1.311428 11.763190 -2.441327 -6.125586 28.463563 0.000000 0.000000 0.000000 0.069234 1.264956 8.393374 -5.193276 -13.794216 -0.544703 -60.321287 -24.020508 7.767183 166.346293 -79.597877 -148.308597 0.000000 0.000000 0.000000 -3.754048 2.732729 6.910472 -1.112775 6.750747 -2.138331 27.914826 -16.504213 -37.400142 -171.472131 68.155521 -171.730968 0.000000 0.000000 0.000000 
-0.356682 32.819672 6.776101 -179.705760 -18.417914 -179.605439 -2.000754 -4.021643 4.019058 -3.395994 9.319225 -5.678120 18.123323 8.253241 41.053958 -13.417827 -0.603130 -5.171925 0.000000 0.000000 0.000000 2.703171 -1.763617 0.600598 -10.710710 2.873403 -30.289389 -4.518242 4.777586 31.144471 10.426820 7.165851 26.893467 0.000000 0.000000 0.000000 -1.154654 -1.595793 -12.699027 -4.985087 4.486255 -10.154087 -1.411718 -0.913345 10.056251 0.036277 -0.179513 0.106329 -1.763546 1.502795 12.342423 -2.973589 -5.913425 29.233640 0.000000 0.000000 0.000000 -0.140099 1.587446 8.913279 -5.611371 -15.156354 -0.204212 -61.372788 -22.023021 9.741196 167.261415 -79.517971 -148.500416 0.000000 0.000000 0.000000 -3.896013 3.041294 7.491987 -1.894555 6.604258 -2.098076 28.031822 -16.442374 -36.015850 -170.315521 68.997902 -170.169013 0.000000 0.000000 0.000000 
-0.051894 32.710514 6.775956 -179.778311 -17.451147 -179.615247 -2.006889 -3.803647 4.124064 -2.555508 9.496551 -5.966969 17.508208 8.155146 42.080533 -13.986020 -0.587202 -5.593719 0.000000 0.000000 0.000000 2.747085 -1.875686 -0.173098 -10.327457 3.571826 -30.209220 -4.198740 4.582824 31.471620 10.313474 6.938939 26.703512 0.000000 0.000000 0.000000 -1.265571 -1.470511 -13.399690 -5.296876 4.711167 -10.284389 -1.616063 -0.720138 10.541019 0.020512 -0.171836 0.102157 -2.032510 1.869515 12.973352 -3.582503 -5.856724 30.030580 0.000000 0.000000 0.000000 -0.522090 1.959195 9.330523 -6.131392 -16.171207 0.452547 -61.690050 -20.274452 11.403035 167.431760 -79.666821 -148.005514 0.000000 0.000000 0.000000 -4.136775 3.435641 8.196324 -2.741825 6.662348 -2.201250 28.132040 -16.328465 -34.255458 -169.876545 70.116571 -169.306046 0.000000 0.000000 0.000000 
0.253874 32.559696 6.752282 -179.805522 -16.826996 -179.508177 -1.888914 -3.802344 4.087207 -1.718693 9.815182 -6.152731 16.870794 8.079446 43.042035 -15.048594 -0.536265 -6.263615 0.000000 0.000000 0.000000 2.971586 -3.108185 -0.989874 -9.832144 4.575004 -30.587677 -3.862028 4.805413 31.997039 9.899933 6.231914 25.810916 0.000000 0.000000 0.000000 -1.198917 -1.680034 -13.962195 -5.500254 5.243379 -10.478495 -1.822596 -0.375250 10.971761 -0.001712 -0.060767 0.093410 -2.306995 2.177006 13.555144 -4.174760 -5.795722 30.710757 0.000000 0.000000 0.000000 -0.723928 2.206271 9.967964 -6.662938 -16.942732 0.730353 -62.145726 -18.202516 12.841438 168.041696 -79.803391 -147.998807 0.000000 0.000000 0.000000 -4.333022 3.685085 8.818327 -3.430957 6.673800 -1.931474 28.309059 -16.231963 -32.432942 -168.726423 70.883976 -167.725376 0.000000 0.000000 0.000000 
0.547811 32.402161 6.666203 -179.688603 -16.949587 -179.862172 -1.599435 -4.043788 4.165979 -0.892196 10.089269 -6.144166 16.217912 7.617736 43.954644 -15.806852 -0.454288 -6.692548 0.000000 0.000000 0.000000 2.536247 -2.798142 -1.168385 -8.380259 3.957826 -29.076972 -3.815642 4.672813 31.873313 9.312283 5.780468 23.839117 0.000000 0.000000 0.000000 -0.987656 -2.099627 -14.071855 -5.637900 5.767016 -10.417369 -2.109020 -0.154139 11.551767 -0.017086 -0.051315 0.098704 -2.524551 2.294117 14.081179 -4.566774 -5.727587 31.169978 0.000000 0.000000 0.000000 -1.117006 2.362516 10.444183 -7.131656 -17.529399 0.994519 -61.887729 -16.321167 13.952087 168.392508 -80.072568 -147.801851 0.000000 0.000000 0.000000 -4.571189 3.942907 9.384884 -4.050291 6.682539 -1.736352 28.666478 -16.395553 -30.513850 -167.489749 71.823182 -166.079301 0.000000 0.000000 0.000000 
